# xmcd
# Copyright (C) 1995-1998 Ti Kan
#
# Track frame offsets:
#       150
#       24365
#       42219
#       58917
#       75150
#       98258
#       137024
#       168813
#       180080
#       195696
#       227689
#       239734
#       259694
#       282661
#       300127
#       321468
#
# Disc length: 4655 seconds
#
# Revision: 0
# Processed by: cddbd v1.5.2PL0 Copyright (c) Steve Scherf et al.
# Submitted via: CD-Transfer v1.0
#
DISCID=c4122d10
DTITLE=Chromatics - J. Jewel, A. Miller, R. Radelet
DYEAR=12
DGENRE=
TTITLE0=Hey, Hey, My, My (Into The Black)
TTITLE1=Kill For Love
TTITLE2=Back From The Grave
TTITLE3=Page, The
TTITLE4=Lady
TTITLE5=These Strets Will Never Look The Same
TTITLE6=Broken Mirrors
TTITLE7=Candy
TTITLE8=Eleventh Hour, The
TTITLE9=Running From The Sun
TTITLE10=Dust To Dust
TTITLE11=Birds Of Paradise
TTITLE12=A Matter Of Time
TTITLE13=At Your Door
TTITLE14=Thers's A Light Out On The Horizon
TTITLE15=River, The
EXTD=
EXTT0=
EXTT1=
EXTT2=
EXTT3=
EXTT4=
EXTT5=
EXTT6=
EXTT7=
EXTT8=
EXTT9=
EXTT10=
EXTT11=
EXTT12=
EXTT13=
EXTT14=
EXTT15=
PLAYORDER=
